<?xml version="1.0" encoding="utf-8"?>
<!-- Generator: Adobe Illustrator 23.0.2, SVG Export Plug-In . SVG Version: 6.00 Build 0)  -->
<svg version="1.1" id="Camada_1" xmlns="http://www.w3.org/2000/svg" xmlns:xlink="http://www.w3.org/1999/xlink" x="0px" y="0px"
	 viewBox="0 0 128 128" style="enable-background:new 0 0 128 128;" xml:space="preserve">
<style type="text/css">
	.st0{fill:#FFFFFF;}
</style>
<path class="st0" d="M64,46c-9.66,0-17.5,7.84-17.5,17.5c0,3.23,0.5,5.5,2.3,8.85C48.8,72.35,63,102,64,102s15.48-30.33,15.48-30.33
	c1.29-2.44,2.02-5.22,2.02-8.17C81.5,53.84,73.66,46,64,46z M64,71c-4.14,0-7.5-3.36-7.5-7.5S59.86,56,64,56s7.5,3.36,7.5,7.5
	S68.14,71,64,71z"/>
<path class="st0" d="M48,43c3,5,0.44,8.95-2.37,9.49C43,53,40,52,38.32,47.75c-1.39-3.5-0.27-7.37,2.42-8.37
	C43.42,38.37,46.01,39.68,48,43z"/>
<path class="st0" d="M61.38,34.94c0.87,4.34-0.94,7.94-4.05,8.56c-3.11,0.62-6.18-1.25-7.21-6.3c-0.84-4.12,0.94-8.37,4.05-8.99
	C57.29,27.58,60.51,30.6,61.38,34.94z"/>
<path class="st0" d="M65.77,34.94c-0.87,4.34,0.94,7.94,4.05,8.56c3.11,0.62,6.18-1.25,7.21-6.3c0.84-4.12-0.94-8.37-4.05-8.99
	S66.65,30.6,65.77,34.94z"/>
<path class="st0" d="M79.83,42c-3,5-0.44,8.95,2.37,9.49c2.63,0.51,5.63-0.49,7.31-4.74c1.39-3.5,0.27-7.37-2.42-8.37
	C84.42,37.37,81.82,38.68,79.83,42z"/>
</svg>
